<svg xmlns="http://www.w3.org/2000/svg" xmlns:xlink="http://www.w3.org/1999/xlink" width="360" height="640" viewBox="0 0 360 640">
    <defs>
        <path id="a" d="M.295.44h13.29v17.864H.295z"/>
        <path id="c" d="M.295.254h1.05v1.67H.295z"/>
        <path id="e" d="M.295.92h14.063V23.46H.295z"/>
        <path id="g" d="M.295.757h13.24v5.609H.295z"/>
        <path id="i" d="M.677.022h25.252v36.012H.677z"/>
        <path id="k" d="M.139.504h34.608v16.477H.14z"/>
        <path id="m" d="M.295.829h17.228V42.05H.295z"/>
        <path id="o" d="M.295.661h32.017V46.14H.295z"/>
        <path id="q" d="M.503.964h40.574V46.06H.503z"/>
        <path id="s" d="M.295.866h39.994v40.276H.295z"/>
        <path id="u" d="M.743.937h40.574v39.737H.743z"/>
        <path id="w" d="M.817.095h9.506v45.479H.817z"/>
        <path id="y" d="M.345.937h5.241V2.75H.345z"/>
        <path id="A" d="M.854.937h40.752v32.317H.854z"/>
        <path id="C" d="M.175.937h3.112v.994H.175z"/>
        <path id="E" d="M.518.167H2.3v40.277H.518z"/>
        <path id="G" d="M.483.937h62.364v27.321H.483z"/>
        <path id="I" d="M.388.93h40.018v45.478H.388z"/>
        <path id="K" d="M.92.54h9.403v50.393H.92z"/>
    </defs>
    <g fill="none" fill-rule="evenodd">
        <path fill="#F24D53" d="M-.706 639.964h362v-640h-362z"/>
        <g opacity=".8">
            <g transform="translate(-1 384.208)">
                <mask id="b" fill="#fff">
                    <use xlink:href="#a"/>
                </mask>
                <path stroke="#FFF" stroke-linejoin="round" stroke-width=".75" d="M13.585.44L1.345 18.303l-13.988-5.608 7.328-10.794" mask="url(#b)"/>
            </g>
            <g transform="translate(-1 402.258)">
                <mask id="d" fill="#fff">
                    <use xlink:href="#c"/>
                </mask>
                <path stroke="#FFF" stroke-linejoin="round" stroke-width=".75" d="M1.345.254l-21.594 1.67" mask="url(#d)"/>
            </g>
            <path stroke="#FFF" stroke-linejoin="round" stroke-width=".75" d="M12.585 384.647l13.013 22.538-12.24 17.866L.345 402.51z"/>
            <g transform="translate(-1 403.26)">
                <mask id="f" fill="#fff">
                    <use xlink:href="#e"/>
                </mask>
                <path stroke="#FFF" stroke-linejoin="round" stroke-width=".75" d="M14.358 21.79L-7.237 23.46-20.25.92" mask="url(#f)"/>
            </g>
            <g transform="translate(-1 378.191)">
                <mask id="h" fill="#fff">
                    <use xlink:href="#g"/>
                </mask>
                <path stroke="#FFF" stroke-linejoin="round" stroke-width=".75" d="M13.535 6.366L-.455.757" mask="url(#h)"/>
            </g>
            <path stroke="#FFF" stroke-linejoin="round" stroke-width=".75" d="M40.497 478.11s3.266.21 5.24-3.026M66.41 475.924c-8.247-12.02-21.945-7.645-24.427-1.305 0 .003-.01.004-.01.006-6.732-1.02-17.37 8.656-11.086 21.807 5.725 11.975 26.448 16.543 27.824 7.188l.008.001.003-.008c8.79 3.486 15.195-16.744 7.688-27.69zM43.518 477.292s-5.493-6.3.924-12.87M110.188 553.698l-12.24 17.865-13.99-5.607 7.329-10.794M82.762 563.884l1.196 2.071-7.606 7.278zM97.948 571.564l-21.596 1.67"/>
            <g transform="translate(97.271 553.676)">
                <mask id="j" fill="#fff">
                    <use xlink:href="#i"/>
                </mask>
                <path stroke="#FFF" stroke-linejoin="round" stroke-width=".75" d="M12.916.022l13.013 22.54-12.24 17.865L.678 17.887z" mask="url(#j)"/>
            </g>
            <g transform="translate(76.213 572.729)">
                <mask id="l" fill="#fff">
                    <use xlink:href="#k"/>
                </mask>
                <path stroke="#FFF" stroke-linejoin="round" stroke-width=".75" d="M34.747 21.374l-21.595 1.669L.139.504" mask="url(#l)"/>
            </g>
            <path stroke="#FFF" stroke-linejoin="round" stroke-width=".75" d="M110.138 553.609L96.148 548M91.287 555.162l4.86-7.16-2.743-4.752-12.287 17.783 2.84 4.923"/>
            <g transform="translate(-1 547.66)">
                <mask id="n" fill="#fff">
                    <use xlink:href="#m"/>
                </mask>
                <path stroke="#FFF" stroke-linejoin="round" stroke-width=".75" d="M12.654 4.416l3.652-.654a1.481 1.481 0 0 0 1.193-1.716A1.482 1.482 0 0 0 15.784.852L3.129 3.12c-.8.145-1.338.916-1.194 1.716.143.8.916 1.338 1.715 1.194l4.478-.8c-.002.02-.007.04-.008.061-.253 7.83-5.373 17.518-13.836 23.37-8.523 5.895-15.674 8.444-35.611 5.18-2.32-.38-4.342 1.2-3.172 3.241l.041.072c8.197 14.198 27.604 18.338 43.348 9.248 15.68-9.052 21.807-27.808 13.764-41.985z" mask="url(#n)"/>
            </g>
            <g transform="translate(-1 205.715)">
                <mask id="p" fill="#fff">
                    <use xlink:href="#o"/>
                </mask>
                <path fill="#FFF" d="M29.365 16.773c5.997 10.387 2.397 21.332-6.782 26.631-9.176 5.299-20.455 2.944-26.453-7.443-5.995-10.386-6.527-28.486 2.65-33.786 9.178-5.299 24.59 4.213 30.585 14.598" mask="url(#p)"/>
            </g>
            <path stroke="#FFF" stroke-linejoin="round" stroke-width=".75" d="M78.848 287.79l3.652-.653a1.482 1.482 0 0 0 1.194-1.716 1.484 1.484 0 0 0-1.716-1.195l-12.655 2.268a1.48 1.48 0 0 0-1.193 1.716 1.48 1.48 0 0 0 1.714 1.193l4.479-.801c-.002.02-.007.04-.008.062-.254 7.83-5.375 17.517-13.836 23.37-8.524 5.895-15.675 8.445-35.612 5.18-2.32-.381-4.342 1.2-3.172 3.24.014.026.027.049.042.073 8.196 14.198 27.604 18.338 43.347 9.247 15.679-9.05 21.807-27.807 13.764-41.983z"/>
            <path fill="#FFF" d="M126.044 391.672c5.996 10.387 2.397 21.332-6.782 26.632-9.177 5.297-20.456 2.943-26.453-7.443-5.996-10.388-6.527-28.488 2.65-33.787 9.177-5.299 24.589 4.212 30.585 14.598"/>
            <path stroke="#FFF" stroke-linejoin="round" stroke-width=".75" d="M176.423 456.946l3.652-.654a1.481 1.481 0 0 0 1.193-1.715 1.483 1.483 0 0 0-1.716-1.195l-12.655 2.268c-.8.144-1.337.915-1.193 1.715.142.8.914 1.338 1.715 1.195l4.477-.802c-.001.022-.006.04-.007.063-.254 7.83-5.375 17.516-13.836 23.37-8.524 5.894-15.675 8.444-35.612 5.179-2.321-.38-4.342 1.2-3.171 3.242l.04.072c8.197 14.197 27.605 18.337 43.348 9.247 15.679-9.052 21.808-27.808 13.765-41.985z"/>
            <g transform="translate(185.515 543.648)">
                <mask id="r" fill="#fff">
                    <use xlink:href="#q"/>
                </mask>
                <path fill="#FFF" d="M38.13 17.076c5.997 10.386 2.397 21.332-6.781 26.63-9.177 5.3-20.456 2.944-26.453-7.442C-1.1 25.877-1.631 7.777 7.546 2.478c9.177-5.299 24.589 4.212 30.585 14.598" mask="url(#r)"/>
            </g>
            <path stroke="#FFF" stroke-linejoin="round" stroke-width=".75" d="M10.062 44.877s3.266.21 5.24-3.026"/>
            <g transform="translate(-1 34.241)">
                <mask id="t" fill="#fff">
                    <use xlink:href="#s"/>
                </mask>
                <path stroke="#FFF" stroke-linejoin="round" stroke-width=".75" d="M36.974 8.45C28.727-3.57 15.029.807 12.548 7.146c-.001.003-.011.004-.011.007-6.732-1.02-17.37 8.655-11.085 21.806 5.724 11.975 26.447 16.543 27.824 7.188l.008.002a.07.07 0 0 1 .003-.008c8.79 3.486 15.195-16.745 7.687-27.69z" mask="url(#t)"/>
            </g>
            <path stroke="#FFF" stroke-linejoin="round" stroke-width=".75" d="M13.083 44.06s-5.493-6.3.923-12.87M79.752 120.466l-12.24 17.865-13.99-5.608 7.329-10.794M52.327 130.651l1.195 2.071L45.916 140zM67.512 138.332L45.917 140M79.752 120.466l13.013 22.538-12.24 17.866-13.013-22.539zM80.525 160.87l-21.596 1.668L45.916 140M79.701 120.376l-13.99-5.608"/>
            <path stroke="#FFF" stroke-linejoin="round" stroke-width=".75" d="M60.851 121.929l4.86-7.16-2.743-4.75L50.68 127.8l2.842 4.923M107.663 213.93s3.266.21 5.242-3.027"/>
            <path stroke="#FFF" stroke-linejoin="round" stroke-width=".75" d="M133.576 211.744c-8.247-12.02-21.944-7.646-24.427-1.306 0 .003-.01.004-.01.006-6.732-1.02-17.37 8.656-11.084 21.807 5.723 11.975 26.446 16.543 27.822 7.188l.01.001.002-.008c8.79 3.486 15.195-16.744 7.687-27.688zM110.685 213.112s-5.493-6.3.923-12.87M177.354 289.517l-12.24 17.865-13.99-5.607 7.33-10.794M149.928 299.703l1.196 2.071-7.605 7.278zM165.114 307.383l-21.595 1.67"/>
            <path stroke="#FFF" stroke-linejoin="round" stroke-width=".75" d="M177.354 289.517l13.013 22.54-12.24 17.865-13.013-22.54zM178.127 329.922l-21.595 1.668-13.013-22.538M177.304 289.428l-13.99-5.609M158.454 290.981l4.86-7.16-2.744-4.752-12.287 17.783 2.84 4.923M205.265 382.981s3.267.21 5.241-3.026"/>
            <path stroke="#FFF" stroke-linejoin="round" stroke-width=".75" d="M231.178 380.795c-8.247-12.02-21.944-7.645-24.426-1.305-.001.002-.011.004-.012.006-6.732-1.02-17.37 8.656-11.084 21.807 5.724 11.975 26.447 16.543 27.824 7.188l.008.001.003-.008c8.79 3.486 15.195-16.745 7.687-27.69zM208.287 382.164s-5.493-6.3.923-12.871M274.957 458.569l-12.24 17.865-13.99-5.608 7.328-10.793M247.531 468.755l1.195 2.07-7.606 7.278zM262.717 476.435l-21.596 1.668"/>
            <path stroke="#FFF" stroke-linejoin="round" stroke-width=".75" d="M274.957 458.569l13.012 22.54-12.24 17.865-13.012-22.54z"/>
            <path stroke="#FFF" stroke-linejoin="round" stroke-width=".75" d="M275.73 498.973l-21.597 1.67-13.012-22.54M274.906 458.48l-13.99-5.609M256.056 460.033l4.86-7.16-2.744-4.752-12.287 17.783 2.841 4.922M302.868 552.032s3.266.212 5.241-3.025"/>
            <path stroke="#FFF" stroke-linejoin="round" stroke-width=".75" d="M328.78 549.847c-8.247-12.02-21.945-7.645-24.426-1.305-.001.002-.01.003-.012.006-6.731-1.02-17.37 8.655-11.083 21.807 5.724 11.975 26.446 16.542 27.823 7.187l.009.002.002-.008c8.791 3.486 15.196-16.745 7.687-27.69zM305.89 551.215s-5.495-6.3.922-12.87"/>
            <g transform="translate(57.16 -53)">
                <mask id="v" fill="#fff">
                    <use xlink:href="#u"/>
                </mask>
                <path fill="#FFF" d="M38.371 11.307c5.996 10.387 2.396 21.332-6.781 26.632-9.178 5.297-20.457 2.943-26.453-7.443C-.86 20.108-1.39 2.008 7.786-3.29 16.963-8.59 32.375.92 38.37 11.307" mask="url(#v)"/>
            </g>
            <path stroke="#FFF" stroke-linejoin="round" stroke-width=".75" d="M145.91 23.581l3.652-.654a1.483 1.483 0 0 0 1.194-1.715 1.483 1.483 0 0 0-1.716-1.195l-12.655 2.268c-.8.144-1.337.915-1.194 1.715.143.8.915 1.338 1.716 1.195l4.477-.803c-.001.022-.007.042-.007.064-.255 7.83-5.375 17.516-13.836 23.37-8.525 5.893-15.676 8.443-35.612 5.178-2.321-.38-4.342 1.202-3.172 3.242l.042.073c8.196 14.197 27.604 18.337 43.348 9.247 15.678-9.052 21.807-27.808 13.764-41.985z"/>
            <path fill="#FFF" d="M193.134 127.359c5.995 10.386 2.396 21.332-6.782 26.63-9.176 5.3-20.455 2.944-26.453-7.442-5.996-10.387-6.527-28.487 2.65-33.786 9.178-5.299 24.59 4.212 30.585 14.598"/>
            <path stroke="#FFF" stroke-linejoin="round" stroke-width=".75" d="M243.617 192.662l3.651-.654a1.483 1.483 0 0 0 1.194-1.716 1.484 1.484 0 0 0-1.715-1.195l-12.655 2.268a1.48 1.48 0 0 0-1.194 1.716 1.48 1.48 0 0 0 1.715 1.193l4.477-.801c0 .02-.006.04-.007.062-.253 7.83-5.374 17.517-13.836 23.37-8.523 5.895-15.674 8.445-35.611 5.18-2.322-.381-4.342 1.2-3.173 3.24l.042.073c8.197 14.198 27.604 18.338 43.348 9.248 15.678-9.052 21.807-27.808 13.764-41.984z"/>
            <path fill="#FFF" d="M290.813 296.543c5.995 10.386 2.395 21.332-6.782 26.63-9.177 5.3-20.456 2.945-26.453-7.442-5.997-10.386-6.527-28.486 2.65-33.786 9.177-5.299 24.588 4.212 30.585 14.598"/>
            <path stroke="#FFF" stroke-linejoin="round" stroke-width=".75" d="M341.191 361.817l3.651-.654a1.483 1.483 0 0 0 1.195-1.715 1.483 1.483 0 0 0-1.716-1.195l-12.655 2.268c-.8.143-1.338.915-1.194 1.715.143.8.915 1.338 1.715 1.195l4.478-.802c-.001.02-.007.04-.007.063-.255 7.83-5.375 17.516-13.837 23.368-8.524 5.896-15.675 8.446-35.61 5.18-2.322-.38-4.343 1.2-3.174 3.243l.042.07c8.197 14.199 27.605 18.34 43.348 9.248 15.678-9.05 21.807-27.807 13.764-41.984z"/>
            <g transform="translate(349.97 449.388)">
                <mask id="x" fill="#fff">
                    <use xlink:href="#w"/>
                </mask>
                <path fill="#FFF" d="M38.445 16.207c5.995 10.386 2.397 21.332-6.782 26.63-9.176 5.3-20.455 2.944-26.453-7.442C-.785 25.01-1.317 6.91 7.86 1.61c9.178-5.299 24.59 4.213 30.585 14.598" mask="url(#x)"/>
            </g>
            <g transform="translate(174.485 -53)">
                <mask id="z" fill="#fff">
                    <use xlink:href="#y"/>
                </mask>
                <path stroke="#FFF" stroke-linejoin="round" stroke-width=".75" d="M.345 2.748s3.267.21 5.241-3.026" mask="url(#z)"/>
            </g>
            <g transform="translate(162.452 -53)">
                <mask id="B" fill="#fff">
                    <use xlink:href="#A"/>
                </mask>
                <path stroke="#FFF" stroke-linejoin="round" stroke-width=".75" d="M38.291.563c-8.247-12.02-21.944-7.645-24.427-1.306 0 .003-.01.004-.011.007C7.12-1.756-3.517 7.919 2.769 21.07c5.724 11.975 26.447 16.543 27.824 7.188l.008.001a.07.07 0 0 0 .003-.008c8.79 3.486 15.195-16.744 7.687-27.688z" mask="url(#B)"/>
            </g>
            <g transform="translate(175.488 -53)">
                <mask id="D" fill="#fff">
                    <use xlink:href="#C"/>
                </mask>
                <path stroke="#FFF" stroke-linejoin="round" stroke-width=".75" d="M2.364 1.93s-5.493-6.3.923-12.87" mask="url(#D)"/>
            </g>
            <path stroke="#FFF" stroke-linejoin="round" stroke-width=".75" d="M244.52 25.337L232.28 43.201l-13.99-5.607L225.62 26.8"/>
            <path stroke="#FFF" stroke-linejoin="round" stroke-width=".75" d="M217.095 35.522l1.196 2.071-7.606 7.278zM232.28 43.202l-21.595 1.67M244.52 25.337l13.013 22.538-12.24 17.866-13.012-22.54z"/>
            <path stroke="#FFF" stroke-linejoin="round" stroke-width=".75" d="M245.293 65.74l-21.595 1.67-13.013-22.539M244.47 25.247l-13.99-5.609M225.62 26.8l4.86-7.16-2.743-4.75-12.288 17.781 2.842 4.923M272.432 118.8s3.266.21 5.241-3.026"/>
            <path stroke="#FFF" stroke-linejoin="round" stroke-width=".75" d="M298.344 116.614c-8.246-12.02-21.944-7.645-24.426-1.305-.001.003-.01.004-.011.006-6.732-1.02-17.37 8.656-11.084 21.807 5.724 11.975 26.446 16.543 27.823 7.188l.008.001.003-.008c8.79 3.486 15.195-16.745 7.687-27.69zM275.453 117.983s-5.493-6.3.924-12.87M342.122 194.388l-12.24 17.865-13.989-5.607 7.328-10.794M314.697 204.574l1.195 2.071-7.605 7.278zM329.883 212.254l-21.595 1.67M342.122 194.388l13.013 22.54-12.24 17.865-13.012-22.54z"/>
            <path stroke="#FFF" stroke-linejoin="round" stroke-width=".75" d="M342.895 234.793L321.3 236.46l-13.013-22.538M342.073 194.299l-13.991-5.609M323.222 195.852l4.86-7.16-2.744-4.752-12.286 17.783 2.84 4.923"/>
            <g transform="translate(357.992 277.914)">
                <mask id="F" fill="#fff">
                    <use xlink:href="#E"/>
                </mask>
                <path stroke="#FFF" stroke-linejoin="round" stroke-width=".75" d="M37.955 7.751C29.708-4.269 16.011.107 13.528 6.447c-.001.002-.01.004-.011.006-6.732-1.02-17.37 8.655-11.084 21.807 5.724 11.975 26.447 16.543 27.824 7.188h.008l.003-.007c8.79 3.486 15.195-16.745 7.687-27.69z" mask="url(#F)"/>
            </g>
            <g transform="translate(252.7 -53)">
                <mask id="H" fill="#fff">
                    <use xlink:href="#G"/>
                </mask>
                <path stroke="#FFF" stroke-linejoin="round" stroke-width=".75" d="M57.978-18.548l3.651-.654a1.483 1.483 0 0 0 1.195-1.715 1.483 1.483 0 0 0-1.716-1.195l-12.655 2.268c-.8.143-1.338.915-1.194 1.715.143.8.915 1.338 1.715 1.195l4.478-.803c-.001.021-.007.042-.007.064C53.19-9.843 48.07-.157 39.609 5.695c-8.525 5.895-15.676 8.445-35.613 5.18-2.32-.38-4.34 1.2-3.172 3.242.015.024.028.049.043.072 8.196 14.198 27.603 18.338 43.347 9.247 15.679-9.05 21.808-27.807 13.764-41.984z" mask="url(#H)"/>
            </g>
            <g transform="translate(319.886 15.188)">
                <mask id="J" fill="#fff">
                    <use xlink:href="#I"/>
                </mask>
                <path fill="#FFF" d="M38.016 17.042c5.995 10.385 2.397 21.332-6.782 26.63-9.177 5.299-20.456 2.943-26.453-7.442-5.996-10.387-6.527-28.487 2.65-33.787 9.177-5.298 24.588 4.213 30.585 14.599" mask="url(#J)"/>
            </g>
            <g transform="translate(349.97 93.404)">
                <mask id="L" fill="#fff">
                    <use xlink:href="#K"/>
                </mask>
                <path stroke="#FFF" stroke-linejoin="round" stroke-width=".75" d="M58.416 4.128l3.651-.654a1.484 1.484 0 0 0 1.194-1.715A1.485 1.485 0 0 0 61.546.563L48.89 2.831c-.8.144-1.338.915-1.195 1.715a1.482 1.482 0 0 0 1.716 1.195l4.478-.802c-.001.021-.007.041-.007.063-.255 7.83-5.375 17.517-13.837 23.37-8.524 5.894-15.675 8.443-35.611 5.178-2.321-.38-4.342 1.202-3.173 3.242l.042.073c8.197 14.197 27.605 18.337 43.348 9.247C60.33 37.06 66.459 18.304 58.416 4.128z" mask="url(#L)"/>
            </g>
        </g>
    </g>
</svg>
